<svg width="138" height="50" viewBox="0 0 138 50" fill="none" xmlns="http://www.w3.org/2000/svg">
<g clip-path="url(#clip0_54_20)">
<path d="M0 30.9479C0 22.3164 13.3034 21.2311 15.0415 18.7299C14.8211 21.0107 7.06291 23.3424 7.06291 29.32C7.06291 31.6517 8.69086 32.4657 10.3188 32.4657C12.7607 32.4657 14.9907 30.5664 16.2371 29.0487C14.0665 32.9574 10.3697 36.1625 6.02849 36.1625C2.06885 36.1625 0 33.7714 0 30.9479Z" fill="#083954"/>
<path d="M0.763107 15.2535C5.7063 12.3792 8.08887 11.9976 8.08887 11.9976C4.3412 14.058 8.52129 17.6446 3.58658 20.3069C3.58658 20.3069 2.66238 17.7548 0.763107 15.262V15.2535Z" fill="#083954"/>
<path d="M19.9254 35.9929C18.2466 35.9929 16.8306 36.0438 15.4231 36.154C16.2879 34.9585 16.3473 32.949 16.3473 26.8187V19.6541C16.3473 15.5249 15.262 11.7263 10.429 11.7263C9.8355 11.7263 9.2335 11.7772 8.52975 11.8874C10.1068 11.5059 11.1328 11.455 12.5487 11.455C17.3817 11.455 22.8082 13.3543 22.8082 20.0865V26.8187C22.8082 33.1694 23.3509 34.2547 24.3259 36.154C22.8082 36.0438 21.6127 35.9929 19.9254 35.9929Z" fill="#083954"/>
<path d="M30.7784 35.5011C28.6078 35.0687 26.8187 34.3056 25.4027 33.6527C26.3778 31.9654 27.2511 29.5235 27.6327 27.6242C31.2701 28.8706 31.1599 35.3909 35.128 36.1455C33.9919 36.0946 32.4657 35.8742 30.7868 35.4926L30.7784 35.5011Z" fill="#083954"/>
<path d="M40.0119 32.3046C39.961 27.0392 26.1658 23.7833 26.115 17.4326C26.115 12.5488 31.4906 11.4635 34.9076 11.3024C33.3305 11.5737 31.4906 12.8794 31.4906 15.2111C31.4906 16.7882 32.9574 18.2551 34.9669 19.7134L36.9764 21.0192C41.4787 23.8426 46.0404 26.2846 46.0404 29.8711C46.0404 34.755 40.5545 35.9505 37.0867 36.1709C38.7146 35.6792 40.0204 34.0512 40.0204 32.3131L40.0119 32.3046Z" fill="#083954"/>
<path d="M36.8662 11.2939C40.1814 11.5143 43.3271 12.9218 45.1755 14.1174C44.3107 15.5842 43.5476 18.0261 43.3865 19.6541C40.0203 18.679 41.1056 12.2181 36.8747 11.2939H36.8662Z" fill="#083954"/>
<path d="M51.789 49.7795C50.1102 49.7795 48.584 49.8898 47.1172 50C48.0922 47.9905 48.6349 46.795 48.6349 40.6647V22.4266C48.6349 16.2964 48.0922 15.1009 47.1172 13.1423C49.0164 13.032 53.5781 12.7607 55.6978 11.6245C55.2654 13.6849 55.1043 15.7538 55.1043 17.865V26.9289C56.1387 32.5759 58.9028 35.942 61.7263 36.3235L60.7512 36.3744C58.6909 36.3744 56.3507 35.6113 55.1043 34.8567V40.6647C55.1043 46.8034 55.5961 47.9905 56.622 50C55.1043 49.8898 53.4763 49.7795 51.789 49.7795Z" fill="#083954"/>
<path d="M66.7797 27.0901C66.7797 20.468 64.6091 13.0321 58.1482 13.0321C57.7158 13.0321 57.1731 13.0829 56.6814 13.1423C57.4445 12.6505 59.5557 11.4041 62.5996 11.4041C68.5179 11.4041 73.2915 16.8306 73.2915 23.7833C73.2915 30.3544 69.0605 36.1031 63.3034 36.1031C65.5842 35.128 66.7797 31.5415 66.7797 27.0901Z" fill="#083954"/>
<path d="M79.0487 35.9929C77.4207 35.9929 75.8436 36.0438 74.3768 36.154C75.8945 33.1694 75.8945 31.5923 75.8945 22.4182C75.8945 16.288 75.4027 15.0331 74.3768 13.0829C75.6232 13.0321 77.1494 12.9727 78.9384 12.6505C80.5155 12.3792 82.1943 11.8874 82.9574 11.6161C82.525 12.9218 82.3639 14.8211 82.3639 20.9513V26.8187C82.3639 32.9574 82.9066 34.2038 83.8816 36.154C82.3639 36.0438 80.7868 35.9929 79.0487 35.9929Z" fill="#083954"/>
<path d="M75.0297 4.06987C75.0297 1.8484 76.8781 0 79.1589 0C81.4397 0 83.2288 1.8484 83.2288 4.06987C83.2288 6.29133 81.4397 8.19908 79.1589 8.19908C76.8781 8.19908 75.0297 6.35069 75.0297 4.06987Z" fill="#083954"/>
<path d="M89.6303 35.9929C87.943 35.9929 86.4253 36.0438 84.9584 36.154C86.4762 33.1694 86.4762 31.5923 86.4762 22.4182C86.4762 16.288 85.9335 15.0331 84.9584 13.0829C86.154 13.0321 87.6717 12.9218 89.5201 12.6505C91.0378 12.3792 92.7251 11.8874 93.4797 11.6161C93.0982 12.9218 92.9371 14.8211 92.9371 20.9513V26.8187C92.9371 32.9574 93.4288 34.2038 94.4548 36.154C92.9371 36.0438 91.3091 35.9929 89.6218 35.9929H89.6303Z" fill="#083954"/>
<path d="M102.332 11.2345C104.502 11.2345 106.079 12.1587 107.436 13.1847C106.944 13.5069 106.3 14.1089 105.757 15.1942C105.265 16.1184 104.833 17.4156 104.621 18.1279C103.264 16.6101 101.798 15.3553 99.8982 15.3553L98.9741 15.4655C97.8379 15.6859 95.8284 16.8815 93.98 19.2132C94.5735 18.077 97.1256 11.2345 102.34 11.2345H102.332Z" fill="#083954"/>
<path d="M105.817 23.7239C105.817 17.6446 110.217 12.5912 115.966 11.455C113.795 12.3792 112.108 15.3638 112.108 19.6541C112.108 20.8496 112.218 22.096 112.489 23.4017C113.685 29.3709 117.373 33.0677 122.698 33.0677C125.572 33.0677 128.014 31.8721 128.938 31.109C128.718 31.4906 125.793 36.1625 118.789 36.1625C111.133 36.1625 105.817 30.5749 105.817 23.7324V23.7239Z" fill="#083954"/>
<path d="M115.584 21.3922L120.85 20.9598C122.206 20.8496 123.02 19.9254 123.02 18.679C122.859 14.9313 120.358 11.6754 117.534 11.243C122.367 11.243 128.447 12.7099 129.914 21.3922H115.584Z" fill="#083954"/>
<path d="M130.999 32.7879C130.999 30.9395 132.517 29.4726 134.314 29.4726C136.112 29.4726 137.68 30.9395 137.68 32.7879C137.68 34.6363 136.162 36.154 134.314 36.154C132.466 36.154 130.999 34.6363 130.999 32.7879Z" fill="#FF7A00"/>
</g>
<defs>
<clipPath id="clip0_54_20">
<rect width="137.68" height="50" fill="white"/>
</clipPath>
</defs>
</svg>
